<?xml version="1.0" encoding="UTF-8" standalone="no"?>
<!DOCTYPE svg PUBLIC "-//W3C//DTD SVG 1.1//EN"
 "http://www.w3.org/Graphics/SVG/1.1/DTD/svg11.dtd">
<!-- Generated by graphviz version 2.40.1 (20161225.0304)
 -->
<!-- Title: dependencies Pages: 1 -->
<svg width="504pt" height="284pt"
 viewBox="0.00 0.00 504.00 284.00" xmlns="http://www.w3.org/2000/svg" xmlns:xlink="http://www.w3.org/1999/xlink">
<g id="graph0" class="graph" transform="scale(1 1) rotate(0) translate(4 280)">
<title>dependencies</title>
<polygon fill="#ffffff" stroke="transparent" points="-4,4 -4,-280 500,-280 500,4 -4,4"/>
<text text-anchor="start" x="227.0091" y="-42.4" font-family="sans-serif" font-weight="bold" font-size="14.00" fill="#000000">Legend</text>
<polygon fill="#ffffb3" stroke="transparent" points="14,-10 14,-30 34,-30 34,-10 14,-10"/>
<text text-anchor="start" x="37.629" y="-15.4" font-family="sans-serif" font-size="14.00" fill="#000000"> &#160;Declarations</text>
<polygon fill="#8dd3c7" stroke="transparent" points="127,-10 127,-30 147,-30 147,-10 127,-10"/>
<text text-anchor="start" x="150.7251" y="-15.4" font-family="sans-serif" font-size="14.00" fill="#000000"> &#160;Module</text>
<polygon fill="#80b1d3" stroke="transparent" points="213,-10 213,-30 233,-30 233,-10 213,-10"/>
<text text-anchor="start" x="236.7812" y="-15.4" font-family="sans-serif" font-size="14.00" fill="#000000"> &#160;Bootstrap</text>
<polygon fill="#fdb462" stroke="transparent" points="310,-10 310,-30 330,-30 330,-10 310,-10"/>
<text text-anchor="start" x="333.6732" y="-15.4" font-family="sans-serif" font-size="14.00" fill="#000000"> &#160;Providers</text>
<polygon fill="#fb8072" stroke="transparent" points="406,-10 406,-30 426,-30 426,-10 406,-10"/>
<text text-anchor="start" x="429.7258" y="-15.4" font-family="sans-serif" font-size="14.00" fill="#000000"> &#160;Exports</text>
<g id="clust1" class="cluster">
<title>cluster_ShowdownModule</title>
<polygon fill="none" stroke="#000000" stroke-dasharray="1,5" points="65,-70 65,-268 431,-268 431,-70 65,-70"/>
</g>
<g id="clust2" class="cluster">
<title>cluster_ShowdownModule_declarations</title>
<polygon fill="none" stroke="#000000" points="283,-78 283,-130 423,-130 423,-78 283,-78"/>
</g>
<g id="clust5" class="cluster">
<title>cluster_ShowdownModule_exports</title>
<polygon fill="none" stroke="#000000" points="192,-208 192,-260 334,-260 334,-208 192,-208"/>
</g>
<g id="clust7" class="cluster">
<title>cluster_ShowdownModule_providers</title>
<polygon fill="none" stroke="#000000" points="73,-78 73,-130 275,-130 275,-78 73,-78"/>
</g>
<!-- DECLARATIONS -->
<g id="node1" class="node">
<title>DECLARATIONS</title>
<polygon fill="#ffffb3" stroke="#000000" points="414.8076,-122 291.1924,-122 291.1924,-86 414.8076,-86 414.8076,-122"/>
<text text-anchor="middle" x="353" y="-99.8" font-family="Times,serif" font-size="14.00" fill="#000000">DECLARATIONS</text>
</g>
<!-- ShowdownModule -->
<g id="node2" class="node">
<title>ShowdownModule</title>
<polygon fill="#8dd3c7" stroke="#000000" points="324.0464,-187 321.0464,-191 300.0464,-191 297.0464,-187 201.9536,-187 201.9536,-151 324.0464,-151 324.0464,-187"/>
<text text-anchor="middle" x="263" y="-164.8" font-family="Times,serif" font-size="14.00" fill="#000000">ShowdownModule</text>
</g>
<!-- DECLARATIONS&#45;&gt;ShowdownModule -->
<g id="edge1" class="edge">
<title>DECLARATIONS&#45;&gt;ShowdownModule</title>
<path fill="none" stroke="#000000" d="M307.8096,-122.1061C307.8096,-122.1061 307.8096,-140.991 307.8096,-140.991"/>
<polygon fill="#000000" stroke="#000000" points="304.3097,-140.9909 307.8096,-150.991 311.3097,-140.991 304.3097,-140.9909"/>
</g>
<!-- DECLARATIONS  -->
<g id="node3" class="node">
<title>DECLARATIONS </title>
<polygon fill="#fb8072" stroke="#000000" points="326.3073,-252 199.6927,-252 199.6927,-216 326.3073,-216 326.3073,-252"/>
<text text-anchor="middle" x="263" y="-229.8" font-family="Times,serif" font-size="14.00" fill="#000000">DECLARATIONS </text>
</g>
<!-- ShowdownModule&#45;&gt;DECLARATIONS  -->
<g id="edge2" class="edge">
<title>ShowdownModule&#45;&gt;DECLARATIONS </title>
<path fill="none" stroke="#000000" stroke-dasharray="5,2" d="M263,-187.1061C263,-187.1061 263,-205.991 263,-205.991"/>
<polygon fill="#000000" stroke="#000000" points="259.5001,-205.9909 263,-215.991 266.5001,-205.991 259.5001,-205.9909"/>
</g>
<!-- ShowdownConverter -->
<g id="node4" class="node">
<title>ShowdownConverter</title>
<ellipse fill="#fdb462" stroke="#000000" cx="174" cy="-104" rx="93.2045" ry="18"/>
<text text-anchor="middle" x="174" y="-99.8" font-family="Times,serif" font-size="14.00" fill="#000000">ShowdownConverter</text>
</g>
<!-- ShowdownConverter&#45;&gt;ShowdownModule -->
<g id="edge3" class="edge">
<title>ShowdownConverter&#45;&gt;ShowdownModule</title>
<path fill="none" stroke="#000000" d="M234.4147,-117.7848C234.4147,-117.7848 234.4147,-140.5475 234.4147,-140.5475"/>
<polygon fill="#000000" stroke="#000000" points="230.9148,-140.5474 234.4147,-150.5475 237.9148,-140.5475 230.9148,-140.5474"/>
</g>
</g>
</svg>
